<svg width="25" height="28" viewBox="0 0 25 28" fill="none" xmlns="http://www.w3.org/2000/svg">
<path d="M19.8339 8.53355C19.8339 6.53553 19.0402 4.61934 17.6273 3.20652C16.2145 1.79371 14.2983 1 12.3003 1C10.3023 1 8.38611 1.79371 6.9733 3.20652C5.56048 4.61934 4.76677 6.53553 4.76677 8.53355C4.76677 17.3227 1 19.8339 1 19.8339H23.6006C23.6006 19.8339 19.8339 17.3227 19.8339 8.53355Z" stroke="#AA0A22" stroke-width="2" stroke-linecap="round" stroke-linejoin="round"/>
<path d="M14.4725 24.8562C14.2518 25.2367 13.9349 25.5526 13.5537 25.7722C13.1725 25.9918 12.7403 26.1073 12.3003 26.1073C11.8604 26.1073 11.4282 25.9918 11.047 25.7722C10.6658 25.5526 10.3489 25.2367 10.1282 24.8562" stroke="#AA0A22" stroke-width="2" stroke-linecap="round" stroke-linejoin="round"/>
</svg>
