<svg width="34" height="42" viewBox="0 0 34 42" fill="none" xmlns="http://www.w3.org/2000/svg">
<path d="M30.85 25.0927L30.125 24.4729C29.9301 24.3071 29.7727 24.0969 29.6646 23.8578C29.5564 23.6188 29.5001 23.3569 29.5 23.0917V15.9375C29.499 12.863 28.4942 9.88416 26.6569 7.50898C24.8196 5.1338 22.2636 3.50946 19.425 2.91301C19.2866 2.34262 18.9736 1.8373 18.5354 1.47651C18.0972 1.11571 17.5585 0.919922 17.0041 0.919922C16.4498 0.919922 15.9111 1.11571 15.4729 1.47651C15.0346 1.8373 14.7217 2.34262 14.5833 2.91301C11.7431 3.50765 9.18526 5.13122 7.34631 7.50657C5.50735 9.88192 4.50133 12.8618 4.49998 15.9375V23.0917C4.49982 23.3569 4.44358 23.6188 4.3354 23.8578C4.22722 24.0969 4.06987 24.3071 3.87498 24.4729L3.14998 25.0927C2.27438 25.8365 1.56684 26.7793 1.0794 27.8519C0.591952 28.9245 0.337008 30.0995 0.333313 31.2906V32.7604C0.333313 33.6997 0.684502 34.6006 1.30962 35.2647C1.93474 35.9289 2.78259 36.3021 3.66665 36.3021H10.55C10.9257 37.814 11.7617 39.1514 12.9276 40.1057C14.0936 41.0599 15.524 41.5774 16.9958 41.5774C18.4676 41.5774 19.898 41.0599 21.064 40.1057C22.23 39.1514 23.066 37.814 23.4416 36.3021H30.3333C31.2174 36.3021 32.0652 35.9289 32.6903 35.2647C33.3155 34.6006 33.6666 33.6997 33.6666 32.7604V31.3083C33.6654 30.1143 33.4117 28.9357 32.9242 27.8599C32.4366 26.784 31.7278 25.8383 30.85 25.0927ZM17 38.0729C16.4183 38.0692 15.8476 37.9038 15.3447 37.5931C14.8418 37.2824 14.4242 36.8374 14.1333 36.3021H19.875C19.5834 36.8386 19.1645 37.2846 18.66 37.5953C18.1555 37.906 17.5831 38.0707 17 38.0729ZM30.3333 32.7604H3.66665V31.3083C3.66754 30.6448 3.80879 29.99 4.07997 29.3923C4.35115 28.7945 4.74531 28.2692 5.23331 27.8552L5.95831 27.2354C6.543 26.738 7.01504 26.1074 7.33958 25.3902C7.66411 24.673 7.83285 23.8875 7.83331 23.0917V15.9375C7.83331 13.3544 8.79908 10.8771 10.5182 9.05056C12.2373 7.22404 14.5688 6.19791 17 6.19791C19.4311 6.19791 21.7627 7.22404 23.4818 9.05056C25.2009 10.8771 26.1666 13.3544 26.1666 15.9375V23.0917C26.1659 23.889 26.334 24.6762 26.6586 25.3951C26.9832 26.1139 27.4559 26.746 28.0416 27.2443L28.7666 27.8641C29.2536 28.2772 29.6471 28.801 29.9182 29.3971C30.1893 29.9932 30.3312 30.6463 30.3333 31.3083V32.7604Z" fill="#555555"/>
</svg>
