<svg width="228" height="40" viewBox="0 0 228 40" fill="none" xmlns="http://www.w3.org/2000/svg">
<path d="M54.3974 0.446925V23.9665C54.3974 29.2551 53.0996 33.2588 50.5041 35.9777C47.945 38.6592 44.271 40 39.482 40C36.6671 40 34.1812 39.4972 32.0243 38.4916C29.904 37.4488 28.2772 36.0335 27.1439 34.2458C25.974 36.0335 24.3472 37.4488 22.2635 38.4916C20.1797 39.4972 17.7121 40 14.8606 40C10.0716 40 6.39755 38.6592 3.83853 35.9777C1.27951 33.2588 0 29.2551 0 23.9665V0.446925H5.48361V23.7989C5.48361 31.2849 8.60927 35.0279 14.8606 35.0279C17.8949 35.0279 20.2528 34.1155 21.9344 32.2905C23.6161 30.4655 24.4569 27.635 24.4569 23.7989V0.446925H29.9405V23.7989C29.9405 27.635 30.7631 30.4655 32.4081 32.2905C34.0898 34.1155 36.4477 35.0279 39.482 35.0279C45.7699 35.0279 48.9138 31.2849 48.9138 23.7989V0.446925H54.3974Z" fill="black"/>
<path d="M82.9358 40C79.0607 40 75.5695 39.1434 72.4621 37.4302C69.3547 35.6797 66.9053 33.2775 65.114 30.2235C63.3593 27.1695 62.4819 23.7616 62.4819 20C62.4819 16.2384 63.3593 12.8305 65.114 9.77653C66.9053 6.72253 69.3547 4.33892 72.4621 2.6257C75.5695 0.875233 79.0607 0 82.9358 0C86.7743 0 90.2473 0.875233 93.3546 2.6257C96.462 4.33892 98.8931 6.72253 100.648 9.77653C102.403 12.7933 103.28 16.2011 103.28 20C103.28 23.7989 102.403 27.2253 100.648 30.2793C98.8931 33.2961 96.462 35.6797 93.3546 37.4302C90.2473 39.1434 86.7743 40 82.9358 40ZM82.9358 35.0279C85.7507 35.0279 88.2732 34.3762 90.5032 33.0726C92.7697 31.7691 94.5428 29.9814 95.8223 27.7095C97.1383 25.4004 97.7964 22.8305 97.7964 20C97.7964 17.1695 97.1383 14.6182 95.8223 12.3464C94.5428 10.0372 92.7697 8.23091 90.5032 6.92737C88.2732 5.62383 85.7507 4.97207 82.9358 4.97207C80.1208 4.97207 77.5618 5.62383 75.2587 6.92737C72.9922 8.23091 71.2008 10.0372 69.8848 12.3464C68.6053 14.6182 67.9655 17.1695 67.9655 20C67.9655 22.8305 68.6053 25.4004 69.8848 27.7095C71.2008 29.9814 72.9922 31.7691 75.2587 33.0726C77.5618 34.3762 80.1208 35.0279 82.9358 35.0279Z" fill="black"/>
<path d="M168.667 40C164.828 40 161.355 39.1434 158.248 37.4302C155.177 35.6797 152.764 33.2961 151.01 30.2793C149.255 27.2253 148.378 23.7989 148.378 20C148.378 16.2011 149.255 12.7933 151.01 9.77653C152.764 6.72253 155.195 4.33892 158.303 2.6257C161.41 0.875233 164.883 0 168.722 0C171.719 0 174.461 0.521415 176.947 1.56425C179.433 2.56983 181.553 4.07821 183.308 6.08938L179.744 9.60894C176.856 6.51769 173.255 4.97207 168.941 4.97207C166.09 4.97207 163.512 5.62383 161.209 6.92737C158.906 8.23091 157.096 10.0372 155.78 12.3464C154.501 14.6182 153.861 17.1695 153.861 20C153.861 22.8305 154.501 25.4004 155.78 27.7095C157.096 29.9814 158.906 31.7691 161.209 33.0726C163.512 34.3762 166.09 35.0279 168.941 35.0279C173.218 35.0279 176.819 33.4637 179.744 30.3352L183.308 33.8547C181.553 35.8659 179.415 37.3929 176.892 38.4358C174.406 39.4786 171.665 40 168.667 40Z" fill="black"/>
<path d="M207.656 40C203.781 40 200.289 39.1434 197.182 37.4302C194.075 35.6797 191.625 33.2775 189.834 30.2235C188.079 27.1695 187.202 23.7616 187.202 20C187.202 16.2384 188.079 12.8305 189.834 9.77653C191.625 6.72253 194.075 4.33892 197.182 2.6257C200.289 0.875233 203.781 0 207.656 0C211.494 0 214.967 0.875233 218.075 2.6257C221.182 4.33892 223.613 6.72253 225.368 9.77653C227.123 12.7933 228 16.2011 228 20C228 23.7989 227.123 27.2253 225.368 30.2793C223.613 33.2961 221.182 35.6797 218.075 37.4302C214.967 39.1434 211.494 40 207.656 40ZM207.656 35.0279C210.471 35.0279 212.993 34.3762 215.223 33.0726C217.49 31.7691 219.263 29.9814 220.542 27.7095C221.858 25.4004 222.516 22.8305 222.516 20C222.516 17.1695 221.858 14.6182 220.542 12.3464C219.263 10.0372 217.49 8.23091 215.223 6.92737C212.993 5.62383 210.471 4.97207 207.656 4.97207C204.841 4.97207 202.282 5.62383 199.979 6.92737C197.712 8.23091 195.921 10.0372 194.605 12.3464C193.325 14.6182 192.686 17.1695 192.686 20C192.686 22.8305 193.325 25.4004 194.605 27.7095C195.921 29.9814 197.712 31.7691 199.979 33.0726C202.282 34.3762 204.841 35.0279 207.656 35.0279Z" fill="black"/>
<path fill-rule="evenodd" clip-rule="evenodd" d="M129.044 27.5419L137.325 39.5531H143.302L134.199 26.4246C136.904 25.4562 138.988 23.9106 140.45 21.7877C141.913 19.6648 142.644 17.095 142.644 14.0782C142.644 9.8324 141.218 6.49907 138.367 4.07821C135.515 1.65735 131.603 0.446925 126.632 0.446925H111.661V14.0782L117.145 14.1061V5.30726H126.467C129.94 5.30726 132.59 6.07076 134.418 7.59776C136.246 9.08752 137.16 11.2477 137.16 14.0782C137.16 16.9088 136.246 19.0875 134.418 20.6145C132.59 22.1415 129.94 22.905 126.467 22.905H117.145H111.661V39.5531H117.145V27.6536H126.632C127.217 27.6536 128.021 27.6164 129.044 27.5419Z" fill="black"/>
</svg>
