<svg width="686" height="49" viewBox="0 0 686 49" fill="none" xmlns="http://www.w3.org/2000/svg">
<path d="M63.8239 3.19996V30.144C63.8239 36.2026 62.3093 40.7893 59.2799 43.904C56.2933 46.976 52.0053 48.512 46.4159 48.512C43.1306 48.512 40.2293 47.936 37.7119 46.784C35.2373 45.5893 33.3386 43.968 32.0159 41.92C30.6506 43.968 28.7519 45.5893 26.3199 46.784C23.8879 47.936 21.0079 48.512 17.6799 48.512C12.0906 48.512 7.8026 46.976 4.81594 43.904C1.82927 40.7893 0.335938 36.2026 0.335938 30.144V3.19996H6.73594V29.952C6.73594 38.528 10.3839 42.816 17.6799 42.816C21.2213 42.816 23.9733 41.7706 25.9359 39.68C27.8986 37.5893 28.8799 34.3466 28.8799 29.952V3.19996H35.2799V29.952C35.2799 34.3466 36.2399 37.5893 38.1599 39.68C40.1226 41.7706 42.8746 42.816 46.4159 42.816C53.7546 42.816 57.4239 38.528 57.4239 29.952V3.19996H63.8239Z" fill="#2E2E2E"/>
<path d="M97.1314 48.512C92.6088 48.512 88.5341 47.5306 84.9074 45.568C81.2808 43.5626 78.4221 40.8106 76.3314 37.312C74.2834 33.8133 73.2594 29.9093 73.2594 25.6C73.2594 21.2906 74.2834 17.3866 76.3314 13.888C78.4221 10.3893 81.2808 7.65863 84.9074 5.69596C88.5341 3.69063 92.6088 2.68797 97.1314 2.68797C101.611 2.68797 105.665 3.69063 109.291 5.69596C112.918 7.65863 115.755 10.3893 117.803 13.888C119.851 17.344 120.875 21.248 120.875 25.6C120.875 29.952 119.851 33.8773 117.803 37.376C115.755 40.832 112.918 43.5626 109.291 45.568C105.665 47.5306 101.611 48.512 97.1314 48.512ZM97.1314 42.816C100.417 42.816 103.361 42.0693 105.963 40.576C108.609 39.0826 110.678 37.0346 112.171 34.432C113.707 31.7866 114.475 28.8426 114.475 25.6C114.475 22.3573 113.707 19.4346 112.171 16.832C110.678 14.1866 108.609 12.1173 105.963 10.624C103.361 9.13063 100.417 8.38396 97.1314 8.38396C93.8461 8.38396 90.8594 9.13063 88.1714 10.624C85.5261 12.1173 83.4354 14.1866 81.8994 16.832C80.4061 19.4346 79.6594 22.3573 79.6594 25.6C79.6594 28.8426 80.4061 31.7866 81.8994 34.432C83.4354 37.0346 85.5261 39.0826 88.1714 40.576C90.8594 42.0693 93.8461 42.816 97.1314 42.816Z" fill="#2E2E2E"/>
<path d="M197.189 48.512C192.709 48.512 188.656 47.5306 185.029 45.568C181.445 43.5626 178.629 40.832 176.581 37.376C174.533 33.8773 173.509 29.952 173.509 25.6C173.509 21.248 174.533 17.344 176.581 13.888C178.629 10.3893 181.467 7.65863 185.093 5.69596C188.72 3.69063 192.773 2.68797 197.253 2.68797C200.752 2.68797 203.952 3.2853 206.853 4.47997C209.755 5.63196 212.229 7.35996 214.277 9.66396L210.117 13.696C206.747 10.1546 202.544 8.38396 197.509 8.38396C194.181 8.38396 191.173 9.13063 188.485 10.624C185.797 12.1173 183.685 14.1866 182.149 16.832C180.656 19.4346 179.909 22.3573 179.909 25.6C179.909 28.8426 180.656 31.7866 182.149 34.432C183.685 37.0346 185.797 39.0826 188.485 40.576C191.173 42.0693 194.181 42.816 197.509 42.816C202.501 42.816 206.704 41.024 210.117 37.44L214.277 41.472C212.229 43.776 209.733 45.5253 206.789 46.72C203.888 47.9146 200.688 48.512 197.189 48.512Z" fill="#2E2E2E"/>
<path d="M242.694 48.512C238.171 48.512 234.097 47.5306 230.47 45.568C226.843 43.5626 223.985 40.8106 221.894 37.312C219.846 33.8133 218.822 29.9093 218.822 25.6C218.822 21.2906 219.846 17.3866 221.894 13.888C223.985 10.3893 226.843 7.65863 230.47 5.69596C234.097 3.69063 238.171 2.68797 242.694 2.68797C247.174 2.68797 251.227 3.69063 254.854 5.69596C258.481 7.65863 261.318 10.3893 263.366 13.888C265.414 17.344 266.438 21.248 266.438 25.6C266.438 29.952 265.414 33.8773 263.366 37.376C261.318 40.832 258.481 43.5626 254.854 45.568C251.227 47.5306 247.174 48.512 242.694 48.512ZM242.694 42.816C245.979 42.816 248.923 42.0693 251.526 40.576C254.171 39.0826 256.241 37.0346 257.734 34.432C259.27 31.7866 260.038 28.8426 260.038 25.6C260.038 22.3573 259.27 19.4346 257.734 16.832C256.241 14.1866 254.171 12.1173 251.526 10.624C248.923 9.13063 245.979 8.38396 242.694 8.38396C239.409 8.38396 236.422 9.13063 233.734 10.624C231.089 12.1173 228.998 14.1866 227.462 16.832C225.969 19.4346 225.222 22.3573 225.222 25.6C225.222 28.8426 225.969 31.7866 227.462 34.432C228.998 37.0346 231.089 39.0826 233.734 40.576C236.422 42.0693 239.409 42.816 242.694 42.816Z" fill="#2E2E2E"/>
<path d="M283.807 48L313.503 3.19996H315.615L327.391 48H325.215L313.951 4.67196H314.847L286.239 48H283.807ZM293.599 34.88L294.815 33.024H322.207L322.655 34.88H293.599Z" fill="#2E2E2E"/>
<path d="M348.217 48.192C345.359 48.192 342.841 47.6586 340.665 46.592C338.532 45.4826 336.868 43.904 335.673 41.856C334.521 39.808 333.945 37.376 333.945 34.56C333.945 31.7013 334.393 29.056 335.289 26.624C336.228 24.192 337.529 22.08 339.193 20.288C340.9 18.4533 342.884 17.0453 345.145 16.064C347.449 15.04 349.988 14.528 352.761 14.528C355.663 14.528 358.137 15.0613 360.185 16.128C362.276 17.1946 363.855 18.7306 364.921 20.736C366.031 22.6986 366.585 25.0666 366.585 27.84C366.585 30.784 366.137 33.4933 365.241 35.968C364.388 38.4426 363.151 40.5973 361.529 42.432C359.908 44.224 357.967 45.632 355.705 46.656C353.444 47.68 350.948 48.192 348.217 48.192ZM348.601 46.272C351.801 46.272 354.639 45.504 357.113 43.968C359.588 42.3893 361.529 40.256 362.937 37.568C364.388 34.8373 365.113 31.744 365.113 28.288C365.113 24.5333 364.004 21.632 361.785 19.584C359.609 17.536 356.559 16.512 352.633 16.512C349.476 16.512 346.639 17.3013 344.121 18.88C341.647 20.416 339.684 22.5493 338.233 25.28C336.783 27.968 336.057 31.04 336.057 34.496C336.057 38.208 337.145 41.1093 339.321 43.2C341.54 45.248 344.633 46.272 348.601 46.272ZM361.529 48L363.769 36.928L365.497 31.872L365.817 26.432L371.001 0.511963H373.113L363.641 48H361.529Z" fill="#2E2E2E"/>
<path d="M425.008 14.528C428.037 14.528 430.448 15.1253 432.24 16.32C434.075 17.5146 435.312 19.1573 435.952 21.248C436.592 23.3386 436.635 25.7706 436.08 28.544L432.176 48H430.064L433.968 28.544C434.693 24.832 434.288 21.9093 432.752 19.776C431.216 17.6 428.528 16.512 424.688 16.512C420.933 16.512 417.733 17.5573 415.088 19.648C412.443 21.696 410.715 24.7466 409.904 28.8L406 48H403.888L407.792 28.544C408.517 24.832 408.112 21.9093 406.576 19.776C405.083 17.6 402.416 16.512 398.576 16.512C394.693 16.512 391.429 17.6426 388.784 19.904C386.139 22.1226 384.389 25.3866 383.536 29.696L379.888 48H377.776L384.368 14.784H386.48L384.56 24.384L383.792 24.192C385.413 20.8213 387.525 18.368 390.128 16.832C392.731 15.296 395.675 14.528 398.96 14.528C401.435 14.528 403.483 14.9546 405.104 15.808C406.768 16.6186 408.027 17.7706 408.88 19.264C409.776 20.7573 410.245 22.528 410.288 24.576L409.328 24.32C410.907 21.0346 413.061 18.5813 415.792 16.96C418.523 15.3386 421.595 14.528 425.008 14.528Z" fill="#2E2E2E"/>
<path d="M446.026 48L452.618 14.784H454.73L448.138 48H446.026ZM455.69 6.07996C455.135 6.07996 454.666 5.88796 454.282 5.50396C453.898 5.11996 453.706 4.67196 453.706 4.15996C453.706 3.56263 453.919 3.05063 454.346 2.62396C454.815 2.15463 455.349 1.91996 455.946 1.91996C456.501 1.91996 456.97 2.11196 457.354 2.49596C457.738 2.87996 457.93 3.32796 457.93 3.83996C457.93 4.4373 457.695 4.97063 457.226 5.43996C456.799 5.86663 456.287 6.07996 455.69 6.07996Z" fill="#2E2E2E"/>
<path d="M483.97 14.528C487 14.528 489.453 15.1253 491.33 16.32C493.208 17.5146 494.466 19.1573 495.106 21.248C495.789 23.3386 495.853 25.7706 495.298 28.544L491.394 48H489.282L493.186 28.544C493.912 24.832 493.464 21.9093 491.842 19.776C490.264 17.6 487.49 16.512 483.522 16.512C479.512 16.512 476.141 17.6213 473.41 19.84C470.722 22.0586 468.952 25.344 468.098 29.696L464.45 48H462.338L468.93 14.784H471.042L469.122 24.384L468.354 24.192C469.933 20.8213 472.066 18.368 474.754 16.832C477.442 15.296 480.514 14.528 483.97 14.528Z" fill="#2E2E2E"/>
<path d="M506.301 48L515.261 3.19996H530.557C535.379 3.19996 539.112 4.26663 541.757 6.39996C544.445 8.49063 545.789 11.456 545.789 15.296C545.789 19.136 544.957 22.3786 543.293 25.024C541.672 27.6266 539.325 29.6106 536.253 30.976C533.224 32.2986 529.597 32.96 525.373 32.96H510.525L511.677 31.936L508.477 48H506.301ZM511.677 31.936L510.909 30.976H525.373C531.176 30.976 535.677 29.6746 538.877 27.072C542.077 24.4693 543.677 20.5866 543.677 15.424C543.677 12.1386 542.547 9.6213 540.285 7.87196C538.024 6.07996 534.781 5.18396 530.557 5.18396H516.093L517.245 4.09596L511.677 31.936Z" fill="#2E2E2E"/>
<path d="M563.405 48.192C560.546 48.192 558.029 47.6586 555.853 46.592C553.72 45.4826 552.056 43.904 550.861 41.856C549.709 39.808 549.133 37.376 549.133 34.56C549.133 31.7013 549.581 29.056 550.477 26.624C551.416 24.192 552.717 22.08 554.381 20.288C556.088 18.4533 558.072 17.0453 560.333 16.064C562.637 15.04 565.176 14.528 567.949 14.528C570.85 14.528 573.325 15.0613 575.373 16.128C577.464 17.1946 579.042 18.7306 580.109 20.736C581.218 22.6986 581.773 25.0666 581.773 27.84C581.816 31.7226 581.048 35.2 579.469 38.272C577.933 41.344 575.778 43.776 573.005 45.568C570.274 47.3173 567.074 48.192 563.405 48.192ZM563.789 46.272C566.989 46.272 569.826 45.504 572.301 43.968C574.776 42.3893 576.717 40.256 578.125 37.568C579.576 34.8373 580.301 31.744 580.301 28.288C580.301 24.5333 579.192 21.632 576.973 19.584C574.797 17.536 571.746 16.512 567.821 16.512C564.664 16.512 561.826 17.3013 559.309 18.88C556.834 20.416 554.872 22.5493 553.421 25.28C551.97 27.968 551.245 31.04 551.245 34.496C551.245 38.208 552.333 41.1093 554.509 43.2C556.728 45.248 559.821 46.272 563.789 46.272ZM576.717 48L578.957 36.928L580.685 31.872L581.005 26.432L583.309 14.784H585.421L578.829 48H576.717Z" fill="#2E2E2E"/>
<path d="M614.595 14.528C617.625 14.528 620.078 15.1253 621.955 16.32C623.833 17.5146 625.091 19.1573 625.731 21.248C626.414 23.3386 626.478 25.7706 625.923 28.544L622.019 48H619.907L623.811 28.544C624.537 24.832 624.089 21.9093 622.467 19.776C620.889 17.6 618.115 16.512 614.147 16.512C610.137 16.512 606.766 17.6213 604.035 19.84C601.347 22.0586 599.577 25.344 598.723 29.696L595.075 48H592.963L599.555 14.784H601.667L599.747 24.384L598.979 24.192C600.558 20.8213 602.691 18.368 605.379 16.832C608.067 15.296 611.139 14.528 614.595 14.528Z" fill="#2E2E2E"/>
<path d="M649.982 48.192C646.91 48.192 644.244 47.6586 641.982 46.592C639.764 45.4826 638.057 43.904 636.862 41.856C635.71 39.808 635.134 37.3333 635.134 34.432C635.134 30.6346 635.902 27.2426 637.438 24.256C639.017 21.2693 641.15 18.9013 643.838 17.152C646.569 15.4026 649.641 14.528 653.054 14.528C655.913 14.528 658.366 15.0826 660.414 16.192C662.462 17.2586 664.041 18.816 665.15 20.864C666.26 22.912 666.814 25.3653 666.814 28.224C666.814 28.8213 666.772 29.4186 666.686 30.016C666.644 30.6133 666.58 31.168 666.494 31.68H636.734L637.118 29.888H665.534L664.638 30.784C665.15 27.6693 664.958 25.0666 664.062 22.976C663.166 20.8426 661.758 19.2213 659.838 18.112C657.918 17.0026 655.636 16.448 652.99 16.448C649.961 16.448 647.252 17.2373 644.862 18.816C642.473 20.352 640.596 22.464 639.23 25.152C637.865 27.84 637.182 30.912 637.182 34.368C637.182 38.208 638.292 41.152 640.51 43.2C642.729 45.248 645.95 46.272 650.174 46.272C652.606 46.272 654.846 45.8666 656.894 45.056C658.942 44.2026 660.628 43.0293 661.95 41.536L662.974 43.008C661.609 44.5866 659.774 45.8453 657.47 46.784C655.166 47.7226 652.67 48.192 649.982 48.192Z" fill="#2E2E2E"/>
<path d="M673.776 48L683.248 0.511963H685.36L675.888 48H673.776Z" fill="#2E2E2E"/>
<path fill-rule="evenodd" clip-rule="evenodd" d="M150.945 34.24L160.609 48H167.585L156.961 32.96C160.119 31.8506 162.551 30.08 164.257 27.648C165.964 25.216 166.817 22.272 166.817 18.816C166.817 13.952 165.153 10.1333 161.825 7.35996C158.497 4.58663 153.932 3.19996 148.129 3.19996H130.657V18.816L137.057 18.848V8.76796H147.937C151.991 8.76796 155.084 9.64263 157.217 11.392C159.351 13.0986 160.417 15.5733 160.417 18.816C160.417 22.0586 159.351 24.5546 157.217 26.304C155.084 28.0533 151.991 28.928 147.937 28.928H137.057H130.657V48H137.057V34.368H148.129C148.812 34.368 149.751 34.3253 150.945 34.24Z" fill="#2E2E2E"/>
</svg>
