<svg width="272" height="43" viewBox="0 0 272 43" fill="none" xmlns="http://www.w3.org/2000/svg">
<path fill-rule="evenodd" clip-rule="evenodd" d="M0 26.5165V19.49H5.08092V20.7774H1.44684V26.5165H0Z" fill="#1B1918"/>
<path fill-rule="evenodd" clip-rule="evenodd" d="M6.21498 20.4047C6.90784 19.6932 7.78409 19.3477 8.83696 19.3477C9.88303 19.3477 10.7457 19.6932 11.4386 20.4047C12.1314 21.1094 12.4846 21.9699 12.4846 22.993C12.4846 24.0162 12.1314 24.8767 11.4386 25.5882C10.7457 26.2996 9.88303 26.652 8.83696 26.652C7.78409 26.652 6.90784 26.2996 6.21498 25.5882C5.52213 24.8767 5.1825 24.0162 5.1825 22.993C5.1825 21.9699 5.52213 21.1094 6.21498 20.4047ZM8.83696 25.2968C9.45509 25.2968 9.97133 25.0732 10.3857 24.6463C10.7932 24.2127 11.0038 23.6638 11.0038 22.993C11.0038 22.329 10.7932 21.7802 10.3857 21.3465C9.97133 20.9196 9.45509 20.696 8.83696 20.696C8.20524 20.696 7.6822 20.9196 7.26785 21.3465C6.86029 21.7802 6.65651 22.329 6.65651 22.993C6.65651 23.6638 6.86029 24.2127 7.26785 24.6463C7.6822 25.0732 8.20524 25.2968 8.83696 25.2968Z" fill="#1B1918"/>
<path fill-rule="evenodd" clip-rule="evenodd" d="M13.4896 26.5165V19.49H16.5667C17.3207 19.49 17.932 19.6865 18.3668 20.0795C18.8083 20.4657 19.0257 20.9671 19.0257 21.6108C19.0257 22.241 18.8083 22.7492 18.3668 23.1421C17.932 23.5351 17.3207 23.7316 16.5667 23.7316H14.9433V26.5165H13.4896ZM14.9433 22.4984H16.4716C17.1645 22.4984 17.572 22.1935 17.572 21.6311C17.572 21.062 17.1645 20.7503 16.4716 20.7503H14.9433V22.4984Z" fill="#1B1918"/>
<path fill-rule="evenodd" clip-rule="evenodd" d="M19.814 26.5165V19.49H21.2608V24.0637L24.6707 19.49H25.9206V26.5165H24.4805V21.909L21.0299 26.5165H19.814Z" fill="#1B1918"/>
<path fill-rule="evenodd" clip-rule="evenodd" d="M26.7495 26.0001V24.5908C27.3609 25.0244 28.2982 25.3022 29.093 25.3022C30.173 25.3022 30.7912 24.9228 30.7912 24.2859C30.7912 23.7235 30.2274 23.4118 29.2968 23.4118H28.4137V22.1921H29.4666C30.2206 22.1921 30.601 21.9279 30.601 21.4197C30.601 20.9454 30.0983 20.6744 29.2832 20.6744C28.4816 20.6744 27.7209 20.8438 27.028 21.1961V19.8613C27.6801 19.5157 28.4613 19.3463 29.3579 19.3463C30.173 19.3463 30.8115 19.5225 31.3006 19.8952C31.7965 20.2678 32.0342 20.7489 32.0342 21.3384C32.0342 22.0499 31.5723 22.5309 31.0832 22.741C31.7625 22.9917 32.2855 23.5812 32.2855 24.4349C32.2855 25.0651 32.0138 25.5868 31.484 26.0205C30.9542 26.4406 30.2138 26.6506 29.2968 26.6506C28.2711 26.6506 27.422 26.427 26.7495 26.0001Z" fill="#1B1918"/>
<path fill-rule="evenodd" clip-rule="evenodd" d="M33.8336 20.4047C34.5265 19.6932 35.4027 19.3477 36.4556 19.3477C37.5017 19.3477 38.3643 19.6932 39.0572 20.4047C39.7501 21.1094 40.1033 21.9699 40.1033 22.993C40.1033 24.0162 39.7501 24.8767 39.0572 25.5882C38.3643 26.2996 37.5017 26.652 36.4556 26.652C35.4027 26.652 34.5265 26.2996 33.8336 25.5882C33.1408 24.8767 32.8011 24.0162 32.8011 22.993C32.8011 21.9699 33.1408 21.1094 33.8336 20.4047ZM36.4556 25.2968C37.0737 25.2968 37.59 25.0732 38.0043 24.6463C38.4119 24.2127 38.6225 23.6638 38.6225 22.993C38.6225 22.329 38.4119 21.7802 38.0043 21.3465C37.59 20.9196 37.0737 20.696 36.4556 20.696C35.8239 20.696 35.3009 20.9196 34.8865 21.3465C34.4789 21.7802 34.2752 22.329 34.2752 22.993C34.2752 23.6638 34.4789 24.2127 34.8865 24.6463C35.3009 25.0732 35.8239 25.2968 36.4556 25.2968Z" fill="#1B1918"/>
<path fill-rule="evenodd" clip-rule="evenodd" d="M41.103 26.5165V19.49H42.5499V22.119H45.7288V19.49H47.1689V26.5165H45.7288V23.4335H42.5499V26.5165H41.103Z" fill="#1B1918"/>
<path fill-rule="evenodd" clip-rule="evenodd" d="M47.9487 19.49H53.8584V20.7774H51.6236V26.5165H50.1767V20.7774H47.9487V19.49Z" fill="#1B1918"/>
<path fill-rule="evenodd" clip-rule="evenodd" d="M57.2346 25.6275C56.5146 24.9363 56.1545 24.0623 56.1545 22.9917C56.1545 21.9211 56.5146 21.047 57.2278 20.3627C57.9478 19.6851 58.8648 19.3463 59.9652 19.3463C60.6581 19.3463 61.2762 19.4954 61.8264 19.7867V21.2368C61.283 20.8776 60.6717 20.6947 59.9788 20.6947C59.3063 20.6947 58.7426 20.9183 58.2942 21.3452C57.8527 21.7788 57.6286 22.3209 57.6286 22.9917C57.6286 23.6693 57.8595 24.2249 58.3146 24.6518C58.7629 25.0854 59.3471 25.2955 60.04 25.2955C60.8007 25.2955 61.446 25.0922 61.9691 24.6856V26.1357C61.3917 26.4812 60.7328 26.6506 59.9652 26.6506C58.8648 26.6506 57.9614 26.3051 57.2346 25.6275Z" fill="#1B1918"/>
<path fill-rule="evenodd" clip-rule="evenodd" d="M63.4569 20.4047C64.1498 19.6932 65.026 19.3477 66.0789 19.3477C67.125 19.3477 67.9876 19.6932 68.6805 20.4047C69.3733 21.1094 69.7266 21.9699 69.7266 22.993C69.7266 24.0162 69.3733 24.8767 68.6805 25.5882C67.9876 26.2996 67.125 26.652 66.0789 26.652C65.026 26.652 64.1498 26.2996 63.4569 25.5882C62.7641 24.8767 62.4244 24.0162 62.4244 22.993C62.4244 21.9699 62.7641 21.1094 63.4569 20.4047ZM66.0789 25.2968C66.697 25.2968 67.2133 25.0732 67.6276 24.6463C68.0352 24.2127 68.2458 23.6638 68.2458 22.993C68.2458 22.329 68.0352 21.7802 67.6276 21.3465C67.2133 20.9196 66.697 20.696 66.0789 20.696C65.4472 20.696 64.9241 20.9196 64.5098 21.3465C64.1022 21.7802 63.8984 22.329 63.8984 22.993C63.8984 23.6638 64.1022 24.2127 64.5098 24.6463C64.9241 25.0732 65.4472 25.2968 66.0789 25.2968Z" fill="#1B1918"/>
<path fill-rule="evenodd" clip-rule="evenodd" d="M70.7322 26.5165V19.49H75.8403V20.7774H72.179V21.909H73.7685C74.5836 21.909 75.2357 22.119 75.7112 22.5527C76.1935 22.9795 76.438 23.5351 76.438 24.2127C76.438 24.9039 76.1935 25.4527 75.718 25.8863C75.2493 26.3064 74.5972 26.5165 73.7685 26.5165H70.7322ZM72.179 25.2426H73.6598C74.4953 25.2426 74.9776 24.8768 74.9776 24.1856C74.9776 23.5013 74.4953 23.115 73.6598 23.115H72.179V25.2426Z" fill="#1B1918"/>
<path fill-rule="evenodd" clip-rule="evenodd" d="M77.3345 26.5165V19.49H78.7813V21.8073H80.0923C80.9278 21.8073 81.5867 22.0309 82.0826 22.4713C82.5716 22.905 82.8162 23.4742 82.8162 24.1653C82.8162 24.8632 82.5716 25.4391 82.0826 25.866C81.5867 26.2997 80.9278 26.5165 80.0923 26.5165H77.3345ZM78.7813 25.2426H80.0108C80.8531 25.2426 81.3557 24.8429 81.3557 24.145C81.3557 23.4335 80.8531 23.0337 80.0108 23.0337H78.7813V25.2426ZM83.6652 26.5165V19.49H85.1121V26.5165H83.6652Z" fill="#1B1918"/>
<path fill-rule="evenodd" clip-rule="evenodd" d="M85.8866 19.49H91.7962V20.7774H89.5614V26.5165H88.1078V20.7774H85.8866V19.49Z" fill="#1B1918"/>
<path fill-rule="evenodd" clip-rule="evenodd" d="M92.5638 26.5165V19.49H94.0107V24.0637L97.4206 19.49H98.6705V26.5165H97.2304V21.909L93.7797 26.5165H92.5638Z" fill="#1B1918"/>
<path fill-rule="evenodd" clip-rule="evenodd" d="M99.9208 26.5146V19.4881H101.368V24.0686L104.778 19.4881H106.027V26.5146H104.587V21.9003L101.137 26.5146H99.9208ZM102.19 17.3944C102.19 17.8348 102.482 18.1262 102.95 18.1262C103.433 18.1262 103.731 17.8348 103.745 17.3944H104.812C104.798 18.4447 104.024 19.1087 102.964 19.1087C101.911 19.1087 101.137 18.4447 101.123 17.3944H102.19Z" fill="#1B1918"/>
<path fill-rule="evenodd" clip-rule="evenodd" d="M189.847 9.46932L178.375 13.6309L178.318 13.6499V13.6594C176.072 14.4394 173.641 13.5357 172.387 11.4811C172.215 11.2053 172.053 10.9485 171.881 10.6916C171.71 10.4348 171.538 10.1827 171.366 9.94492C171.252 9.78322 171.133 9.612 171.004 9.45029L170.947 9.3742C170.718 9.07932 170.489 8.7892 170.222 8.48481C170.127 8.37067 170.022 8.25652 169.927 8.15189C169.726 7.90457 169.512 7.65726 169.283 7.42897C168.835 6.9486 168.367 6.50153 167.924 6.10203C167.771 5.96886 167.619 5.84044 167.485 5.73581C167.333 5.58361 167.161 5.45045 166.989 5.31728L166.298 4.76557C165.631 4.26619 165.016 3.85717 164.424 3.50522C164.205 3.36253 163.986 3.23888 163.766 3.11522L163.142 2.76803C162.675 2.52071 162.212 2.29242 161.735 2.07364C161.478 1.9595 161.201 1.84535 160.934 1.74072C160.338 1.48389 159.747 1.27938 159.18 1.10816C158.913 1.01304 158.636 0.936944 158.379 0.870359C158.083 0.78475 157.792 0.699141 157.487 0.632556C156.963 0.518411 156.348 0.375729 155.709 0.29012C155.442 0.242559 155.156 0.204511 154.798 0.15695C154.493 0.118902 154.178 0.0903651 153.883 0.0713409C153.577 0.0428045 153.267 0.0237803 152.953 0.0142682C152.638 0.00951212 152.333 0 152.018 0C138.911 0 128.255 10.625 128.255 23.7042C128.255 24.0086 128.265 24.294 128.274 24.6364L128.369 26.0585C128.398 26.3153 128.427 26.5578 128.455 26.7861C128.474 26.9764 128.503 27.1761 128.536 27.3664C128.908 29.7539 127.568 32.0796 125.356 32.8834L113.875 37.0545L114.194 37.9486L125.676 33.7728L130.553 32.0035L134.921 30.4198C137.676 37.3969 144.466 42.0436 152.018 42.0436C162.107 42.0436 170.394 33.7633 170.394 23.7042C170.394 21.7352 170.079 19.7567 169.445 17.878L173.974 16.2277H173.984L190.166 10.3587L189.847 9.46932ZM138.239 23.7042C138.239 16.1183 144.409 9.95443 152.018 9.95443C157.811 9.95443 162.76 13.5072 164.796 18.5534L138.911 27.9609C138.477 26.6244 138.239 25.1929 138.239 23.7042ZM165.693 25.4782C164.887 31.8941 159.494 36.9641 153.024 37.4207C146.807 37.8535 141.395 34.1866 139.235 28.855L165.13 19.4428C165.736 21.3071 165.96 23.3523 165.693 25.4782ZM165.764 18.2014C163.399 12.323 157.363 8.31359 150.473 9.00798C143.288 9.7309 137.586 15.7521 137.228 22.9575C137.138 24.8409 137.395 26.6387 137.943 28.3128L133.171 30.0488C134.029 28.8931 134.434 27.4044 134.258 25.8492C133.962 23.4426 134.153 21.017 134.825 18.677C136.632 12.3705 142.01 7.46701 148.523 6.18763C155.67 4.7846 162.894 7.78091 166.923 13.8306C167.838 15.1861 169.187 16.0898 170.661 16.4274L165.764 18.2014Z" fill="#AA0A22"/>
<path fill-rule="evenodd" clip-rule="evenodd" d="M199.052 19.1588V22.0403L202.394 19.1588H203.814L200.105 22.3211L204.34 26.155H202.847L199.052 22.7119V26.155H198.012V19.1588H199.052Z" fill="#1B1918"/>
<path fill-rule="evenodd" clip-rule="evenodd" d="M208.661 18.9875C209.775 18.9875 210.668 19.3416 211.378 20.062C212.088 20.7702 212.443 21.6371 212.443 22.6627C212.443 23.6761 212.088 24.543 211.378 25.2512C210.668 25.9593 209.775 26.3256 208.661 26.3256C207.523 26.3256 206.629 25.9593 205.919 25.2512C205.209 24.543 204.866 23.6761 204.866 22.6627C204.866 21.6371 205.209 20.7702 205.919 20.062C206.629 19.3416 207.523 18.9875 208.661 18.9875ZM210.595 20.6969C210.093 20.1841 209.444 19.9155 208.661 19.9155C207.865 19.9155 207.204 20.1841 206.702 20.6969C206.188 21.2219 205.931 21.8691 205.931 22.6627C205.931 23.4319 206.188 24.079 206.702 24.604C207.204 25.1291 207.865 25.3855 208.661 25.3855C209.444 25.3855 210.093 25.1291 210.595 24.604C211.109 24.079 211.366 23.4319 211.366 22.6627C211.366 21.8691 211.109 21.2219 210.595 20.6969Z" fill="#1B1918"/>
<path fill-rule="evenodd" clip-rule="evenodd" d="M214.377 26.1549V19.1587H218.061C219.42 19.1587 220.191 19.8791 220.191 20.9413C220.191 21.6983 219.897 22.1989 219.322 22.4797C220.203 22.7362 220.656 23.3344 220.656 24.2746C220.656 25.4345 219.811 26.1549 218.306 26.1549H214.377ZM215.417 22.1257H217.779C218.649 22.1257 219.163 21.7472 219.163 21.1C219.163 20.4163 218.649 20.0622 217.779 20.0622H215.417V22.1257ZM215.417 25.2514H218.098C219.04 25.2514 219.603 24.8484 219.603 24.1281C219.603 23.4199 219.04 22.9926 218.098 22.9926H215.417V25.2514Z" fill="#1B1918"/>
<path fill-rule="evenodd" clip-rule="evenodd" d="M226.03 18.9875C227.144 18.9875 228.037 19.3416 228.747 20.062C229.457 20.7702 229.812 21.6371 229.812 22.6627C229.812 23.6761 229.457 24.543 228.747 25.2512C228.037 25.9593 227.144 26.3256 226.03 26.3256C224.892 26.3256 223.998 25.9593 223.288 25.2512C222.578 24.543 222.236 23.6761 222.236 22.6627C222.236 21.6371 222.578 20.7702 223.288 20.062C223.998 19.3416 224.892 18.9875 226.03 18.9875ZM227.964 20.6969C227.462 20.1841 226.813 19.9155 226.03 19.9155C225.234 19.9155 224.573 20.1841 224.072 20.6969C223.558 21.2219 223.3 21.8691 223.3 22.6627C223.3 23.4319 223.558 24.079 224.072 24.604C224.573 25.1291 225.234 25.3855 226.03 25.3855C226.813 25.3855 227.462 25.1291 227.964 24.604C228.478 24.079 228.735 23.4319 228.735 22.6627C228.735 21.8691 228.478 21.2219 227.964 20.6969Z" fill="#1B1918"/>
<path fill-rule="evenodd" clip-rule="evenodd" d="M232.775 29.0484H231.735V19.1585H232.775V20.2696C233.424 19.4149 234.317 18.9875 235.492 18.9875C236.521 18.9875 237.377 19.3416 238.026 20.0498C238.687 20.758 239.018 21.6249 239.018 22.6383C239.018 23.6639 238.687 24.543 238.026 25.2512C237.377 25.9593 236.521 26.3256 235.492 26.3256C234.317 26.3256 233.424 25.8861 232.775 25.0436V29.0484ZM232.775 23.7982C233.179 24.7384 234.183 25.3855 235.235 25.3855C236.019 25.3855 236.667 25.1291 237.181 24.604C237.683 24.0668 237.94 23.4075 237.94 22.6383C237.94 21.8691 237.683 21.2219 237.181 20.6969C236.667 20.1841 236.019 19.9155 235.235 19.9155C234.183 19.9155 233.191 20.587 232.775 21.5028V23.7982Z" fill="#1B1918"/>
<path fill-rule="evenodd" clip-rule="evenodd" d="M242.003 19.1587V22.0402L245.344 19.1587H246.764L243.055 22.321L247.29 26.1549H245.797L242.003 22.7117V26.1549H240.962V19.1587H242.003Z" fill="#1B1918"/>
<path fill-rule="evenodd" clip-rule="evenodd" d="M248.796 26.1549V19.1587H249.836V24.6287L254.341 19.1587H255.308V26.1549H254.267V20.6971L249.763 26.1549H248.796Z" fill="#1B1918"/>
<path fill-rule="evenodd" clip-rule="evenodd" d="M257.756 26.1549V19.1587H258.796V22.1012H263.105V19.1587H264.157V26.1549H263.105V23.0414H258.796V26.1549H257.756Z" fill="#1B1918"/>
<path fill-rule="evenodd" clip-rule="evenodd" d="M266.606 26.1549V19.1587H271.881V20.0622H267.646V26.1549H266.606Z" fill="#1B1918"/>
</svg>
