<svg width="267" height="46" viewBox="0 0 267 46" fill="none" xmlns="http://www.w3.org/2000/svg">
<path d="M63.488 0.511997V27.456C63.488 33.5147 61.9733 38.1013 58.944 41.216C55.9573 44.288 51.6693 45.824 46.08 45.824C42.7947 45.824 39.8933 45.248 37.376 44.096C34.9013 42.9013 33.0027 41.28 31.68 39.232C30.3147 41.28 28.416 42.9013 25.984 44.096C23.552 45.248 20.672 45.824 17.344 45.824C11.7547 45.824 7.46667 44.288 4.48 41.216C1.49333 38.1013 0 33.5147 0 27.456V0.511997H6.4V27.264C6.4 35.84 10.048 40.128 17.344 40.128C20.8853 40.128 23.6373 39.0827 25.6 36.992C27.5627 34.9013 28.544 31.6587 28.544 27.264V0.511997H34.944V27.264C34.944 31.6587 35.904 34.9013 37.824 36.992C39.7867 39.0827 42.5387 40.128 46.08 40.128C53.4187 40.128 57.088 35.84 57.088 27.264V0.511997H63.488Z" fill="#2E2E2E"/>
<path d="M96.7955 45.824C92.2728 45.824 88.1982 44.8427 84.5715 42.88C80.9448 40.8747 78.0862 38.1227 75.9955 34.624C73.9475 31.1253 72.9235 27.2213 72.9235 22.912C72.9235 18.6027 73.9475 14.6987 75.9955 11.2C78.0862 7.70133 80.9448 4.97067 84.5715 3.008C88.1982 1.00267 92.2728 0 96.7955 0C101.275 0 105.329 1.00267 108.955 3.008C112.582 4.97067 115.42 7.70133 117.467 11.2C119.516 14.656 120.54 18.56 120.54 22.912C120.54 27.264 119.516 31.1893 117.467 34.688C115.42 38.144 112.582 40.8747 108.955 42.88C105.329 44.8427 101.275 45.824 96.7955 45.824ZM96.7955 40.128C100.081 40.128 103.025 39.3813 105.628 37.888C108.273 36.3947 110.342 34.3467 111.836 31.744C113.372 29.0987 114.14 26.1547 114.14 22.912C114.14 19.6693 113.372 16.7467 111.836 14.144C110.342 11.4987 108.273 9.42933 105.628 7.936C103.025 6.44267 100.081 5.696 96.7955 5.696C93.5102 5.696 90.5235 6.44267 87.8355 7.936C85.1902 9.42933 83.0995 11.4987 81.5635 14.144C80.0702 16.7467 79.3235 19.6693 79.3235 22.912C79.3235 26.1547 80.0702 29.0987 81.5635 31.744C83.0995 34.3467 85.1902 36.3947 87.8355 37.888C90.5235 39.3813 93.5102 40.128 96.7955 40.128Z" fill="#2E2E2E"/>
<path d="M196.854 45.824C192.374 45.824 188.32 44.8427 184.693 42.88C181.109 40.8747 178.294 38.144 176.245 34.688C174.197 31.1893 173.173 27.264 173.173 22.912C173.173 18.56 174.197 14.656 176.245 11.2C178.294 7.70133 181.131 4.97067 184.758 3.008C188.384 1.00267 192.438 0 196.917 0C200.416 0 203.616 0.597333 206.518 1.792C209.419 2.944 211.893 4.672 213.941 6.976L209.781 11.008C206.411 7.46667 202.208 5.696 197.173 5.696C193.845 5.696 190.838 6.44267 188.15 7.936C185.462 9.42933 183.35 11.4987 181.814 14.144C180.32 16.7467 179.574 19.6693 179.574 22.912C179.574 26.1547 180.32 29.0987 181.814 31.744C183.35 34.3467 185.462 36.3947 188.15 37.888C190.838 39.3813 193.845 40.128 197.173 40.128C202.165 40.128 206.368 38.336 209.781 34.752L213.941 38.784C211.893 41.088 209.398 42.8373 206.454 44.032C203.552 45.2267 200.352 45.824 196.854 45.824Z" fill="#2E2E2E"/>
<path d="M242.358 45.824C237.835 45.824 233.761 44.8427 230.134 42.88C226.507 40.8747 223.649 38.1227 221.558 34.624C219.51 31.1253 218.486 27.2213 218.486 22.912C218.486 18.6027 219.51 14.6987 221.558 11.2C223.649 7.70133 226.507 4.97067 230.134 3.008C233.761 1.00267 237.835 0 242.358 0C246.838 0 250.891 1.00267 254.518 3.008C258.145 4.97067 260.982 7.70133 263.03 11.2C265.078 14.656 266.102 18.56 266.102 22.912C266.102 27.264 265.078 31.1893 263.03 34.688C260.982 38.144 258.145 40.8747 254.518 42.88C250.891 44.8427 246.838 45.824 242.358 45.824ZM242.358 40.128C245.643 40.128 248.587 39.3813 251.19 37.888C253.835 36.3947 255.905 34.3467 257.398 31.744C258.934 29.0987 259.702 26.1547 259.702 22.912C259.702 19.6693 258.934 16.7467 257.398 14.144C255.905 11.4987 253.835 9.42933 251.19 7.936C248.587 6.44267 245.643 5.696 242.358 5.696C239.073 5.696 236.086 6.44267 233.398 7.936C230.753 9.42933 228.662 11.4987 227.126 14.144C225.633 16.7467 224.886 19.6693 224.886 22.912C224.886 26.1547 225.633 29.0987 227.126 31.744C228.662 34.3467 230.753 36.3947 233.398 37.888C236.086 39.3813 239.073 40.128 242.358 40.128Z" fill="#2E2E2E"/>
<path fill-rule="evenodd" clip-rule="evenodd" d="M150.609 31.552L160.273 45.312H167.249L156.626 30.272C159.783 29.1627 162.215 27.392 163.922 24.96C165.628 22.528 166.482 19.584 166.482 16.128C166.482 11.264 164.818 7.44533 161.49 4.672C158.161 1.89866 153.596 0.511997 147.794 0.511997H130.322V16.128L136.721 16.16V6.08H147.602C151.655 6.08 154.748 6.95466 156.882 8.704C159.015 10.4107 160.081 12.8853 160.081 16.128C160.081 19.3707 159.015 21.8667 156.882 23.616C154.748 25.3653 151.655 26.24 147.602 26.24H136.721H130.322V45.312H136.721V31.68H147.794C148.476 31.68 149.415 31.6373 150.609 31.552Z" fill="#2E2E2E"/>
</svg>
