<svg width="80" height="65" viewBox="0 0 80 65" fill="none" xmlns="http://www.w3.org/2000/svg">
<path fill-rule="evenodd" clip-rule="evenodd" d="M0.974121 56.2431V51.0717H4.71365V52.0192H2.03899V56.2431H0.974121Z" fill="#1B1918"/>
<path fill-rule="evenodd" clip-rule="evenodd" d="M5.5453 51.7445C6.05524 51.2209 6.70016 50.9666 7.47506 50.9666C8.24497 50.9666 8.87989 51.2209 9.38982 51.7445C9.89976 52.2632 10.1597 52.8965 10.1597 53.6495C10.1597 54.4026 9.89976 55.0359 9.38982 55.5595C8.87989 56.0832 8.24497 56.3425 7.47506 56.3425C6.70016 56.3425 6.05524 56.0832 5.5453 55.5595C5.03537 55.0359 4.7854 54.4026 4.7854 53.6495C4.7854 52.8965 5.03537 52.2632 5.5453 51.7445ZM7.47506 55.3451C7.93001 55.3451 8.30996 55.1805 8.61492 54.8664C8.91488 54.5472 9.06986 54.1432 9.06986 53.6495C9.06986 53.1608 8.91488 52.7569 8.61492 52.4377C8.30996 52.1235 7.93001 51.959 7.47506 51.959C7.01012 51.959 6.62517 52.1235 6.32021 52.4377C6.02025 52.7569 5.87026 53.1608 5.87026 53.6495C5.87026 54.1432 6.02025 54.5472 6.32021 54.8664C6.62517 55.1805 7.01012 55.3451 7.47506 55.3451Z" fill="#1B1918"/>
<path fill-rule="evenodd" clip-rule="evenodd" d="M10.9054 56.2431V51.0717H13.1701C13.725 51.0717 14.175 51.2163 14.495 51.5055C14.8199 51.7898 14.9799 52.1588 14.9799 52.6326C14.9799 53.0964 14.8199 53.4704 14.495 53.7596C14.175 54.0489 13.725 54.1935 13.1701 54.1935H11.9753V56.2431H10.9054ZM11.9753 53.2859H13.1001C13.6101 53.2859 13.91 53.0614 13.91 52.6475C13.91 52.2286 13.6101 51.9992 13.1001 51.9992H11.9753V53.2859Z" fill="#1B1918"/>
<path fill-rule="evenodd" clip-rule="evenodd" d="M15.5607 56.2431V51.0717H16.6255V54.4378L19.1352 51.0717H20.0551V56.2431H18.9952V52.852L16.4556 56.2431H15.5607Z" fill="#1B1918"/>
<path fill-rule="evenodd" clip-rule="evenodd" d="M20.6616 55.8658V54.8285C21.1116 55.1477 21.8015 55.3522 22.3864 55.3522C23.1813 55.3522 23.6363 55.0729 23.6363 54.6041C23.6363 54.1902 23.2213 53.9608 22.5364 53.9608H21.8865V53.0631H22.6614C23.2163 53.0631 23.4963 52.8687 23.4963 52.4946C23.4963 52.1455 23.1263 51.9461 22.5264 51.9461C21.9365 51.9461 21.3765 52.0707 20.8666 52.3301V51.3476C21.3465 51.0933 21.9215 50.9686 22.5814 50.9686C23.1813 50.9686 23.6513 51.0983 24.0112 51.3726C24.3762 51.6469 24.5511 52.0009 24.5511 52.4348C24.5511 52.9584 24.2112 53.3125 23.8512 53.4671C24.3512 53.6516 24.7361 54.0855 24.7361 54.7138C24.7361 55.1776 24.5361 55.5616 24.1462 55.8808C23.7562 56.19 23.2113 56.3446 22.5364 56.3446C21.7815 56.3446 21.1566 56.18 20.6616 55.8658Z" fill="#1B1918"/>
<path fill-rule="evenodd" clip-rule="evenodd" d="M25.8766 51.7445C26.3865 51.2209 27.0315 50.9666 27.8064 50.9666C28.5763 50.9666 29.2112 51.2209 29.7211 51.7445C30.2311 52.2632 30.491 52.8965 30.491 53.6495C30.491 54.4026 30.2311 55.0359 29.7211 55.5595C29.2112 56.0832 28.5763 56.3425 27.8064 56.3425C27.0315 56.3425 26.3865 56.0832 25.8766 55.5595C25.3667 55.0359 25.1167 54.4026 25.1167 53.6495C25.1167 52.8965 25.3667 52.2632 25.8766 51.7445ZM27.8064 55.3451C28.2613 55.3451 28.6413 55.1805 28.9462 54.8664C29.2462 54.5472 29.4012 54.1432 29.4012 53.6495C29.4012 53.1608 29.2462 52.7569 28.9462 52.4377C28.6413 52.1235 28.2613 51.959 27.8064 51.959C27.3414 51.959 26.9565 52.1235 26.6515 52.4377C26.3515 52.7569 26.2016 53.1608 26.2016 53.6495C26.2016 54.1432 26.3515 54.5472 26.6515 54.8664C26.9565 55.1805 27.3414 55.3451 27.8064 55.3451Z" fill="#1B1918"/>
<path fill-rule="evenodd" clip-rule="evenodd" d="M31.2312 56.243V51.0715H32.2961V53.0065H34.6358V51.0715H35.6956V56.243H34.6358V53.9739H32.2961V56.243H31.2312Z" fill="#1B1918"/>
<path fill-rule="evenodd" clip-rule="evenodd" d="M36.2698 51.0717H40.6192V52.0192H38.9744V56.2431H37.9096V52.0192H36.2698V51.0717Z" fill="#1B1918"/>
<path fill-rule="evenodd" clip-rule="evenodd" d="M43.0996 55.5915C42.5697 55.0829 42.3047 54.4395 42.3047 53.6516C42.3047 52.8637 42.5697 52.2204 43.0946 51.7167C43.6245 51.218 44.2994 50.9686 45.1093 50.9686C45.6193 50.9686 46.0742 51.0783 46.4792 51.2928V52.36C46.0792 52.0957 45.6293 51.961 45.1193 51.961C44.6244 51.961 44.2094 52.1256 43.8795 52.4398C43.5545 52.7589 43.3896 53.1579 43.3896 53.6516C43.3896 54.1503 43.5595 54.5592 43.8945 54.8734C44.2244 55.1926 44.6544 55.3472 45.1643 55.3472C45.7243 55.3472 46.1992 55.1976 46.5841 54.8983V55.9656C46.1592 56.2199 45.6743 56.3446 45.1093 56.3446C44.2994 56.3446 43.6345 56.0902 43.0996 55.5915Z" fill="#1B1918"/>
<path fill-rule="evenodd" clip-rule="evenodd" d="M47.6809 51.7445C48.1909 51.2209 48.8358 50.9666 49.6107 50.9666C50.3806 50.9666 51.0155 51.2209 51.5254 51.7445C52.0354 52.2632 52.2953 52.8965 52.2953 53.6495C52.2953 54.4026 52.0354 55.0359 51.5254 55.5595C51.0155 56.0832 50.3806 56.3425 49.6107 56.3425C48.8358 56.3425 48.1909 56.0832 47.6809 55.5595C47.171 55.0359 46.921 54.4026 46.921 53.6495C46.921 52.8965 47.171 52.2632 47.6809 51.7445ZM49.6107 55.3451C50.0656 55.3451 50.4456 55.1805 50.7505 54.8664C51.0505 54.5472 51.2055 54.1432 51.2055 53.6495C51.2055 53.1608 51.0505 52.7569 50.7505 52.4377C50.4456 52.1235 50.0656 51.959 49.6107 51.959C49.1457 51.959 48.7608 52.1235 48.4558 52.4377C48.1559 52.7569 48.0059 53.1608 48.0059 53.6495C48.0059 54.1432 48.1559 54.5472 48.4558 54.8664C48.7608 55.1805 49.1457 55.3451 49.6107 55.3451Z" fill="#1B1918"/>
<path fill-rule="evenodd" clip-rule="evenodd" d="M53.0295 56.2431V51.0717H56.7891V52.0192H54.0944V52.852H55.2643C55.8642 52.852 56.3441 53.0066 56.6941 53.3258C57.049 53.6399 57.229 54.0489 57.229 54.5476C57.229 55.0562 57.049 55.4602 56.6991 55.7793C56.3541 56.0885 55.8742 56.2431 55.2643 56.2431H53.0295ZM54.0944 55.3056H55.1843C55.7992 55.3056 56.1541 55.0363 56.1541 54.5276C56.1541 54.0239 55.7992 53.7397 55.1843 53.7397H54.0944V55.3056Z" fill="#1B1918"/>
<path fill-rule="evenodd" clip-rule="evenodd" d="M57.8936 56.2431V51.0717H58.9584V52.7772H59.9233C60.5382 52.7772 61.0232 52.9418 61.3881 53.2659C61.7481 53.5851 61.928 54.004 61.928 54.5127C61.928 55.0263 61.7481 55.4502 61.3881 55.7644C61.0232 56.0835 60.5382 56.2431 59.9233 56.2431H57.8936ZM58.9584 55.3056H59.8633C60.4832 55.3056 60.8532 55.0113 60.8532 54.4977C60.8532 53.9741 60.4832 53.6798 59.8633 53.6798H58.9584V55.3056ZM62.553 56.2431V51.0717H63.6178V56.2431H62.553Z" fill="#1B1918"/>
<path fill-rule="evenodd" clip-rule="evenodd" d="M64.1896 51.0717H68.539V52.0192H66.8942V56.2431H65.8244V52.0192H64.1896V51.0717Z" fill="#1B1918"/>
<path fill-rule="evenodd" clip-rule="evenodd" d="M69.1011 56.2431V51.0717H70.1659V54.4378L72.6756 51.0717H73.5955V56.2431H72.5356V52.852L69.996 56.2431H69.1011Z" fill="#1B1918"/>
<path fill-rule="evenodd" clip-rule="evenodd" d="M74.5112 56.2445V51.0731H75.5761V54.4443L78.0858 51.0731H79.0057V56.2445H77.9458V52.8484L75.4061 56.2445H74.5112ZM76.181 49.5321C76.181 49.8563 76.396 50.0707 76.741 50.0707C77.0959 50.0707 77.3159 49.8563 77.3259 49.5321H78.1108C78.1008 50.3051 77.5309 50.7938 76.751 50.7938C75.976 50.7938 75.4061 50.3051 75.3961 49.5321H76.181Z" fill="#1B1918"/>
<path fill-rule="evenodd" clip-rule="evenodd" d="M79.66 9.92903L67.6315 14.2926L67.5715 14.3126V14.3225C65.2168 15.1404 62.6671 14.1929 61.3523 12.0385C61.1723 11.7493 61.0023 11.48 60.8224 11.2107C60.6424 10.9414 60.4624 10.6771 60.2824 10.4277C60.1625 10.2582 60.0375 10.0786 59.9025 9.90909L59.8425 9.82929C59.6025 9.5201 59.3626 9.2159 59.0826 8.89673C58.9826 8.77705 58.8726 8.65736 58.7726 8.54765C58.5627 8.28832 58.3377 8.029 58.0977 7.78963C57.6278 7.28594 57.1378 6.81717 56.6729 6.39827C56.5129 6.25863 56.3529 6.12398 56.213 6.01427C56.053 5.85469 55.873 5.71505 55.693 5.57542L54.9681 4.99693C54.2682 4.4733 53.6233 4.04442 53.0034 3.67539C52.7734 3.52578 52.5434 3.39612 52.3134 3.26646L51.6585 2.90241C51.1686 2.64309 50.6836 2.40371 50.1837 2.17431C49.9137 2.05463 49.6238 1.93494 49.3438 1.82523C48.7189 1.55593 48.099 1.34149 47.504 1.16196C47.2241 1.06222 46.9341 0.982431 46.6642 0.912613C46.3542 0.822848 46.0492 0.733083 45.7293 0.663265C45.1793 0.543578 44.5344 0.39397 43.8645 0.304204C43.5845 0.254335 43.2846 0.214439 42.9096 0.16457C42.5897 0.124674 42.2597 0.0947522 41.9497 0.0748044C41.6298 0.0448826 41.3048 0.0249348 40.9749 0.0149609C40.6449 0.00997392 40.3249 0 39.995 0C26.2517 0 15.0781 11.1409 15.0781 24.855C15.0781 25.1742 15.0881 25.4734 15.0981 25.8324L15.1981 27.3235C15.2281 27.5928 15.2581 27.8472 15.2881 28.0865C15.3081 28.286 15.3381 28.4955 15.3731 28.695C15.763 31.1984 14.3582 33.637 12.0385 34.4798L0 38.8534L0.334958 39.7909L12.3734 35.4124L17.4878 33.5572L22.0672 31.8966C24.9569 39.2124 32.076 44.0847 39.995 44.0847C50.5737 44.0847 59.2626 35.4024 59.2626 24.855C59.2626 22.7904 58.9326 20.7158 58.2677 18.746L63.0171 17.0155H63.0271L79.995 10.8616L79.66 9.92903ZM25.5468 24.855C25.5468 16.9008 32.016 10.4377 39.995 10.4377C46.0692 10.4377 51.2586 14.163 53.3933 19.4541L26.2517 29.3183C25.7968 27.917 25.5468 26.4159 25.5468 24.855ZM54.3332 26.7151C53.4883 33.4425 47.834 38.7586 41.0499 39.2374C34.5307 39.6912 28.8564 35.8463 26.5917 30.2559L53.7433 20.3867C54.3782 22.3416 54.6132 24.486 54.3332 26.7151ZM54.4082 19.0851C51.9285 12.9212 45.5993 8.7172 38.3752 9.4453C30.8411 10.2033 24.8619 16.5168 24.4869 24.072C24.3919 26.0469 24.6619 27.9319 25.2368 29.6874L20.2325 31.5076C21.1324 30.2958 21.5573 28.7348 21.3723 27.1041C21.0624 24.5807 21.2623 22.0374 21.9672 19.5838C23.862 12.9711 29.5013 7.82952 36.3304 6.48803C43.8245 5.01688 51.3986 8.15866 55.623 14.5021C56.5829 15.9234 57.9977 16.8709 59.5425 17.225L54.4082 19.0851Z" fill="#AA0A22"/>
<path fill-rule="evenodd" clip-rule="evenodd" d="M25.4811 60.4663V61.6432L26.8459 60.4663H27.4259L25.911 61.7579L27.6408 63.3238H27.0309L25.4811 61.9175V63.3238H25.0562V60.4663H25.4811Z" fill="#1B1918"/>
<path fill-rule="evenodd" clip-rule="evenodd" d="M29.4016 60.3975C29.8566 60.3975 30.2215 60.5421 30.5115 60.8363C30.8014 61.1256 30.9464 61.4796 30.9464 61.8985C30.9464 62.3125 30.8014 62.6665 30.5115 62.9558C30.2215 63.245 29.8566 63.3946 29.4016 63.3946C28.9367 63.3946 28.5717 63.245 28.2818 62.9558C27.9918 62.6665 27.8518 62.3125 27.8518 61.8985C27.8518 61.4796 27.9918 61.1256 28.2818 60.8363C28.5717 60.5421 28.9367 60.3975 29.4016 60.3975ZM30.1915 61.0956C29.9865 60.8862 29.7216 60.7765 29.4016 60.7765C29.0767 60.7765 28.8067 60.8862 28.6017 61.0956C28.3917 61.3101 28.2868 61.5744 28.2868 61.8985C28.2868 62.2127 28.3917 62.477 28.6017 62.6915C28.8067 62.9059 29.0767 63.0106 29.4016 63.0106C29.7216 63.0106 29.9865 62.9059 30.1915 62.6915C30.4015 62.477 30.5065 62.2127 30.5065 61.8985C30.5065 61.5744 30.4015 61.3101 30.1915 61.0956Z" fill="#1B1918"/>
<path fill-rule="evenodd" clip-rule="evenodd" d="M31.7378 63.324V60.4664H33.2426C33.7975 60.4664 34.1125 60.7607 34.1125 61.1945C34.1125 61.5037 33.9925 61.7082 33.7575 61.8229C34.1175 61.9276 34.3025 62.172 34.3025 62.556C34.3025 63.0297 33.9575 63.324 33.3426 63.324H31.7378ZM32.1627 61.6783H33.1276C33.4826 61.6783 33.6925 61.5237 33.6925 61.2594C33.6925 60.9801 33.4826 60.8355 33.1276 60.8355H32.1627V61.6783ZM32.1627 62.9549H33.2576C33.6426 62.9549 33.8725 62.7904 33.8725 62.4961C33.8725 62.2069 33.6426 62.0323 33.2576 62.0323H32.1627V62.9549Z" fill="#1B1918"/>
<path fill-rule="evenodd" clip-rule="evenodd" d="M36.4907 60.3973C36.9457 60.3973 37.3106 60.542 37.6006 60.8362C37.8905 61.1254 38.0355 61.4795 38.0355 61.8984C38.0355 62.3123 37.8905 62.6664 37.6006 62.9556C37.3106 63.2449 36.9457 63.3945 36.4907 63.3945C36.0258 63.3945 35.6608 63.2449 35.3709 62.9556C35.0809 62.6664 34.9409 62.3123 34.9409 61.8984C34.9409 61.4795 35.0809 61.1254 35.3709 60.8362C35.6608 60.542 36.0258 60.3973 36.4907 60.3973ZM37.2806 61.0955C37.0757 60.8861 36.8107 60.7763 36.4907 60.7763C36.1658 60.7763 35.8958 60.8861 35.6908 61.0955C35.4809 61.31 35.3759 61.5743 35.3759 61.8984C35.3759 62.2126 35.4809 62.4769 35.6908 62.6913C35.8958 62.9058 36.1658 63.0105 36.4907 63.0105C36.8107 63.0105 37.0757 62.9058 37.2806 62.6913C37.4906 62.4769 37.5956 62.2126 37.5956 61.8984C37.5956 61.5743 37.4906 61.31 37.2806 61.0955Z" fill="#1B1918"/>
<path fill-rule="evenodd" clip-rule="evenodd" d="M39.2494 64.5067H38.8245V60.4673H39.2494V60.9211C39.5144 60.572 39.8793 60.3975 40.3593 60.3975C40.7792 60.3975 41.1292 60.5421 41.3941 60.8313C41.6641 61.1206 41.7991 61.4746 41.7991 61.8886C41.7991 62.3075 41.6641 62.6665 41.3941 62.9558C41.1292 63.245 40.7792 63.3946 40.3593 63.3946C39.8793 63.3946 39.5144 63.2151 39.2494 62.871V64.5067ZM39.2494 62.3623C39.4144 62.7463 39.8243 63.0106 40.2543 63.0106C40.5742 63.0106 40.8392 62.9059 41.0492 62.6915C41.2542 62.472 41.3591 62.2027 41.3591 61.8886C41.3591 61.5744 41.2542 61.3101 41.0492 61.0956C40.8392 60.8862 40.5742 60.7765 40.2543 60.7765C39.8243 60.7765 39.4194 61.0508 39.2494 61.4248V62.3623Z" fill="#1B1918"/>
<path fill-rule="evenodd" clip-rule="evenodd" d="M43.0221 60.4664V61.6434L44.3869 60.4664H44.9669L43.4521 61.7581L45.1818 63.324H44.5719L43.0221 61.9176V63.324H42.5972V60.4664H43.0221Z" fill="#1B1918"/>
<path fill-rule="evenodd" clip-rule="evenodd" d="M45.7994 63.3238V60.4663H46.2244V62.7005L48.0642 60.4663H48.4591V63.3238H48.0342V61.0947L46.1944 63.3238H45.7994Z" fill="#1B1918"/>
<path fill-rule="evenodd" clip-rule="evenodd" d="M49.4543 63.3238V60.4663H49.8793V61.6682H51.6391V60.4663H52.069V63.3238H51.6391V62.0522H49.8793V63.3238H49.4543Z" fill="#1B1918"/>
<path fill-rule="evenodd" clip-rule="evenodd" d="M53.0669 63.324V60.4664H55.2216V60.8355H53.4918V63.324H53.0669Z" fill="#1B1918"/>
</svg>
