<svg width="59" height="42" viewBox="0 0 59 42" fill="none" xmlns="http://www.w3.org/2000/svg">
<g clip-path="url(#clip0_34_121)">
<path d="M17.2457 23.6663C16.4791 23.6663 15.8659 23.4019 15.3621 22.8951C14.8584 22.3882 14.6175 21.7492 14.6175 21C14.6175 20.2508 14.8584 19.6118 15.3621 19.1049C15.8659 18.5981 16.501 18.3337 17.2457 18.3337C17.9904 18.3337 18.6036 18.5981 19.1074 19.1049C19.6111 19.6118 19.8521 20.2508 19.8521 21C19.8521 21.7712 19.6111 22.3882 19.1074 22.8951C18.6036 23.4019 17.9904 23.6663 17.2457 23.6663ZM38.1184 0.572928C43.7253 0.572928 48.8066 2.86464 52.4861 6.56663C56.1656 10.2686 58.4435 15.3809 58.4435 21.022C58.4435 26.6632 56.1656 31.7754 52.4861 35.4774C48.8066 39.1794 43.7253 41.4711 38.1184 41.4711C32.5114 41.4711 27.4302 39.1794 23.7506 35.4774C20.991 32.7009 19.0198 29.1312 18.2094 25.1427C19.0417 24.9885 19.7425 24.6138 20.3558 24.0189C21.1881 23.1815 21.5823 22.1899 21.5823 21.022C21.5823 19.8541 21.1881 18.8625 20.3558 18.0472C19.7644 17.4523 19.0417 17.0777 18.2094 16.9234C19.0198 12.9349 20.991 9.36516 23.7506 6.58867C27.4302 2.8426 32.5114 0.572928 38.1184 0.572928ZM17.6619 25.1868C18.4941 29.3074 20.5091 32.9874 23.3564 35.852C27.1235 39.6422 32.3581 42 38.1184 42C43.8786 42 49.0913 39.6422 52.8803 35.852C56.6475 32.0619 58.991 26.7954 58.991 21C58.991 15.2046 56.6475 9.96012 52.8803 6.14795C49.0913 2.35782 43.8786 0 38.1184 0C32.3581 0 27.1454 2.35782 23.3564 6.14795C20.5091 9.01259 18.4941 12.6925 17.6619 16.8132C17.5304 16.8132 17.399 16.7912 17.2457 16.7912C15.9754 16.7912 14.946 17.1878 14.1137 18.0031C13.2814 18.8185 12.8872 19.8101 12.8872 20.978C12.8872 22.1679 13.2814 23.1595 14.1137 23.9748C14.946 24.7901 15.9754 25.1868 17.2457 25.1868C17.399 25.2088 17.5304 25.1868 17.6619 25.1868Z" fill="#AA232B"/>
<path d="M31.5477 32.1721C32.0953 32.1721 32.5114 31.9738 32.7961 31.5992V32.084H33.5627V26.7513H32.7961V29.021C32.5114 28.6464 32.0953 28.4481 31.5477 28.4481C31.044 28.4481 30.6497 28.6244 30.3212 28.999C29.9927 29.3515 29.8393 29.7922 29.8393 30.3211C29.8393 30.85 29.9927 31.2907 30.3212 31.6432C30.6497 31.9958 31.0659 32.1721 31.5477 32.1721ZM31.7667 31.489C31.4382 31.489 31.1754 31.3788 30.9564 31.1585C30.7373 30.9381 30.6278 30.6516 30.6278 30.3211C30.6278 29.9906 30.7373 29.7261 30.9564 29.4837C31.1754 29.2634 31.4382 29.1312 31.7667 29.1312C32.2267 29.1312 32.6209 29.3956 32.818 29.7482V30.85C32.599 31.2246 32.2048 31.489 31.7667 31.489ZM35.512 32.0619V28.5362H34.7454V32.0619H35.512ZM35.1396 27.6107C35.4025 27.6107 35.6215 27.4124 35.6215 27.1259C35.6215 26.8395 35.4025 26.6191 35.1396 26.6191C34.8549 26.6191 34.6578 26.8395 34.6578 27.1259C34.6359 27.4124 34.8549 27.6107 35.1396 27.6107ZM39.3886 28.999C39.1039 28.6244 38.6878 28.4481 38.1402 28.4481C37.6365 28.4481 37.2422 28.6244 36.9137 28.9769C36.5852 29.3295 36.4319 29.7482 36.4319 30.255C36.4319 30.7618 36.5852 31.1805 36.9137 31.5551C37.2422 31.9077 37.6365 32.084 38.1402 32.084C38.6878 32.084 39.1039 31.9077 39.3886 31.5331V31.7975C39.3886 32.5467 38.8411 32.9433 38.0964 32.9433C37.6146 32.9433 37.1765 32.8332 36.8042 32.5908V33.2959C37.1765 33.4942 37.6365 33.6044 38.184 33.6044C38.7316 33.6044 39.1915 33.4502 39.5857 33.1417C39.98 32.8332 40.1552 32.3484 40.1552 31.7534V28.5362H39.3886V28.999ZM38.3373 31.3788C38.0088 31.3788 37.746 31.2686 37.527 31.0483C37.3079 30.8279 37.1984 30.5635 37.1984 30.255C37.1984 29.9465 37.3079 29.6821 37.527 29.4617C37.746 29.2414 38.0088 29.1312 38.3373 29.1312C38.7973 29.1312 39.2134 29.3736 39.3886 29.7482V30.7838C39.2134 31.1144 38.7973 31.3788 38.3373 31.3788ZM42.0826 32.0619V28.5362H41.316V32.0619H42.0826ZM41.6883 27.6107C41.9512 27.6107 42.1702 27.4124 42.1702 27.1259C42.1702 26.8395 41.9512 26.6191 41.6883 26.6191C41.4036 26.6191 41.2065 26.8395 41.2065 27.1259C41.2065 27.4124 41.4036 27.6107 41.6883 27.6107ZM43.6157 31.1144C43.6157 31.7975 44.0319 32.1721 44.6889 32.1721C45.0394 32.1721 45.3022 32.106 45.4774 31.9958V31.3347C45.3022 31.4229 45.1489 31.467 44.9517 31.467C44.5794 31.467 44.4042 31.2907 44.4042 30.894V29.2193H45.5212V28.5362H44.4042V27.5005H43.6376V28.5362H42.893V29.2193H43.6376L43.6157 31.1144ZM49.6607 31.467C49.4855 31.467 49.3759 31.3347 49.3759 31.1144V29.7922C49.3759 28.9329 48.7189 28.4481 47.7552 28.4481C47.2515 28.4481 46.8353 28.5582 46.463 28.7566V29.4397C46.7915 29.2414 47.1638 29.1312 47.58 29.1312C48.2589 29.1312 48.6094 29.3956 48.6094 29.9024V30.1007C48.2808 29.9245 47.9085 29.8363 47.4924 29.8363C47.0981 29.8363 46.7696 29.9465 46.4849 30.1448C46.2221 30.3431 46.0687 30.6296 46.0687 31.0042C46.0687 31.3788 46.2002 31.6653 46.4411 31.8856C46.682 32.084 47.0105 32.1941 47.3829 32.1941C47.9304 32.1941 48.3466 32.0178 48.6751 31.6432C48.7627 31.9738 49.0255 32.1501 49.4198 32.1501C49.6169 32.1501 49.7702 32.106 49.8797 32.0399V31.4449C49.814 31.4449 49.7483 31.467 49.6607 31.467ZM48.6094 31.0703C48.3904 31.3127 48.018 31.489 47.6019 31.489C47.1419 31.489 46.8353 31.3127 46.8353 30.9381C46.8353 30.5855 47.1419 30.3872 47.6676 30.3872C47.9961 30.3872 48.3028 30.4753 48.6094 30.6296V31.0703ZM51.5224 32.1721C51.7414 32.1721 51.9385 32.128 52.0918 32.0619V31.4008C52.0042 31.4449 51.9166 31.467 51.8071 31.467C51.5443 31.467 51.4128 31.3127 51.4128 31.0262V26.7513H50.6463V31.2466C50.6463 31.9077 51.0186 32.1721 51.5224 32.1721ZM1.78285 24.9885V16.3505L4.93674 20.6474H5.96614L9.12003 16.3505V24.9885H10.8941V13.6181H9.12003L5.4843 18.7303L1.82666 13.6181H0.00878906V24.9885H1.78285ZM25.3494 24.9885V20.0966C25.7218 19.2592 26.7074 18.532 27.9558 18.532C28.131 18.532 28.2843 18.5541 28.4376 18.5541V16.7912C28.3938 16.7692 28.35 16.7692 28.2843 16.7692C27.0578 16.7692 25.897 17.4302 25.3713 18.3557V16.9675H23.6192V24.9444L25.3494 24.9885ZM31.8105 24.9885V17.0116H30.0584V24.9885H31.8105ZM30.9344 15.5792C31.5258 15.5792 32.0076 15.1165 32.0076 14.4775C32.0076 13.8384 31.5258 13.3536 30.9344 13.3536C30.2993 13.3536 29.8393 13.8384 29.8393 14.4775C29.8393 15.1165 30.3212 15.5792 30.9344 15.5792ZM38.2497 23.6663C37.4832 23.6663 36.8699 23.4019 36.3661 22.8951C35.8624 22.3883 35.6215 21.7492 35.6215 21C35.6215 20.2508 35.8624 19.6118 36.3661 19.1049C36.8699 18.5981 37.5051 18.3337 38.2497 18.3337C38.9944 18.3337 39.6077 18.5981 40.1114 19.1049C40.6151 19.6118 40.8561 20.2508 40.8561 21C40.8561 21.7713 40.6151 22.3883 40.1114 22.8951C39.6077 23.4019 38.9944 23.6663 38.2497 23.6663ZM38.2497 25.2088C39.4981 25.2088 40.5494 24.8122 41.3598 23.9969C42.1921 23.1595 42.5863 22.1679 42.5863 21C42.5863 19.8321 42.1921 18.8405 41.3598 18.0252C40.5275 17.2099 39.4981 16.8132 38.2497 16.8132C36.9794 16.8132 35.95 17.2099 35.1177 18.0252C34.2855 18.8405 33.8912 19.8321 33.8912 21C33.8912 22.1899 34.2855 23.1815 35.1177 23.9969C35.9281 24.7901 36.9575 25.2088 38.2497 25.2088ZM46.244 19.744C46.7039 19.0168 47.6019 18.4439 48.478 18.4439C49.5074 18.4439 50.3396 18.9507 50.3396 20.5152V24.9885H52.0918V20.1186C52.0918 18.0472 51.0186 16.8132 49.1569 16.8132C47.9961 16.8132 47.0324 17.2319 46.244 18.0913V17.0336H44.4918V25.0105H46.244V19.744Z" fill="#2B2A29"/>
</g>
<defs>
<clipPath id="clip0_34_121">
<rect width="59" height="42" fill="white"/>
</clipPath>
</defs>
</svg>
