<svg width="29" height="29" viewBox="0 0 29 29" fill="none" xmlns="http://www.w3.org/2000/svg">
<path d="M13.4111 0.0274944C11.3324 0.2314 9.73508 0.678862 8.03587 1.52281C4.25794 3.39761 1.51086 6.79038 0.446021 10.9082C-0.0807371 12.9359 -0.143042 15.2751 0.270435 17.3255C1.15969 21.7378 4.04837 25.4988 8.05852 27.4642C9.53118 28.1835 10.7943 28.5857 12.3632 28.8292C13.5017 29.0048 15.4784 29.0048 16.6113 28.8292C18.1802 28.5857 19.5113 28.1609 20.882 27.4812C22.4056 26.7279 23.4818 25.9462 24.7165 24.7171C25.9626 23.4654 26.7386 22.3835 27.4863 20.8599C28.1829 19.4439 28.5851 18.1582 28.8286 16.6119C29.0042 15.4791 29.0042 13.4966 28.8286 12.3638C28.5851 10.7949 28.1829 9.52612 27.4579 8.05913C26.7103 6.54116 25.8777 5.3857 24.6769 4.19624C23.5384 3.07476 22.4566 2.28745 21.1029 1.59644C19.432 0.74683 17.8177 0.265385 15.9656 0.0728073C15.2745 -0.000825882 13.9322 -0.0234833 13.4111 0.0274944ZM13.9322 2.31577L13.9491 3.51089L14.1077 3.64683C14.323 3.83374 14.6515 3.83374 14.8667 3.64683L15.0253 3.51089L15.0423 2.31011L15.0593 1.11499L15.4105 1.14898C17.3759 1.34156 18.9052 1.7607 20.4628 2.54234C22.5642 3.59585 24.2974 5.14214 25.6171 7.12456C26.8972 9.04468 27.5825 11.0498 27.8261 13.5646L27.8601 13.9158L26.665 13.9328L25.4642 13.9498L25.3282 14.1084C25.1413 14.3236 25.1413 14.6521 25.3282 14.8673L25.4642 15.0259L26.6593 15.0429L27.8544 15.0599L27.8204 15.4677C27.4523 19.948 24.9771 23.8675 21.1142 26.0878C19.3866 27.0791 17.6478 27.6115 15.4105 27.8267L15.0593 27.8607L15.0423 26.6656L15.0253 25.4648L14.8667 25.3289C14.7591 25.2382 14.6402 25.1929 14.4872 25.1929C14.3343 25.1929 14.2154 25.2382 14.1077 25.3289L13.9491 25.4648L13.9322 26.6656L13.9152 27.8607L13.564 27.8267C10.7603 27.5548 8.54563 26.7222 6.44426 25.1589C5.67395 24.5869 4.37688 23.2898 3.81614 22.5308C2.24153 20.4125 1.42024 18.2205 1.14836 15.4111L1.11438 15.0599L2.3095 15.0429L3.51028 15.0259L3.64622 14.8673C3.73684 14.7597 3.78215 14.6408 3.78215 14.4878C3.78215 14.3349 3.73684 14.216 3.64622 14.1084L3.51028 13.9498L2.3095 13.9328L1.11438 13.9158L1.14836 13.5646C1.43157 10.7269 2.25286 8.54058 3.8218 6.43355C4.38254 5.68023 5.68528 4.38316 6.44426 3.81675C8.60227 2.21382 11.1058 1.29624 13.7906 1.12632C13.9152 1.12066 13.9152 1.12632 13.9322 2.31577Z" fill="#AA0A22"/>
<path d="M8.67026 8.32536C8.31908 8.41598 8.18315 8.8861 8.41537 9.20328C8.47768 9.28825 9.80307 10.6306 11.355 12.1769C13.3318 14.148 14.2267 15.0033 14.34 15.0316C14.4589 15.0599 14.98 14.9466 16.2658 14.6011C18.7013 13.9498 18.554 14.0007 18.6787 13.7912C18.8203 13.5646 18.8203 13.4287 18.6843 13.2078C18.4634 12.8453 18.3955 12.8509 16.4413 13.3777L14.6855 13.8535L11.9101 11.0894C10.0636 9.25426 9.0894 8.31969 8.99311 8.3027C8.91381 8.29137 8.76655 8.3027 8.67026 8.32536Z" fill="#AA0A22"/>
</svg>
